<svg xmlns="http://www.w3.org/2000/svg" width="860" height="550" viewBox="0 0 860 550" role="img" aria-label="parse-arena leaderboard chart">
<rect width="860" height="550" fill="#ffffff"/>
<text x="24" y="30" font-size="18" font-weight="700" fill="#111827" font-family="system-ui, sans-serif">parse-arena &#8212; per-track leaderboard</text>
<text x="24" y="47" font-size="12" fill="#6b7280" font-family="system-ui, sans-serif">dataset parse-arena-builtin &#183; 11 documents &#183; parse-arena 0.1.0</text>
<g font-family="system-ui, sans-serif">
<text x="24" y="56" font-size="15" font-weight="700" fill="#111827">en-text</text>
<text x="180" y="81" font-size="13" text-anchor="end" fill="#374151">mock-oracle (mock)</text>
<rect x="190" y="69" width="470" height="15" rx="3" fill="#d97706" fill-opacity="0.9"/>
<text x="668" y="81" font-size="12" fill="#6b7280">1.000</text>
<text x="180" y="107" font-size="13" text-anchor="end" fill="#374151">plaintext</text>
<rect x="190" y="95" width="470" height="15" rx="3" fill="#2563eb" fill-opacity="0.9"/>
<text x="668" y="107" font-size="12" fill="#6b7280">1.000 &#183; coverage 50%</text>
<text x="180" y="133" font-size="13" text-anchor="end" fill="#374151">pypdf</text>
<rect x="190" y="121" width="470" height="15" rx="3" fill="#2563eb" fill-opacity="0.9"/>
<text x="668" y="133" font-size="12" fill="#6b7280">1.000 &#183; coverage 50%</text>
<text x="24" y="162" font-size="15" font-weight="700" fill="#111827">en-table</text>
<text x="180" y="187" font-size="13" text-anchor="end" fill="#374151">mock-oracle (mock)</text>
<rect x="190" y="175" width="470" height="15" rx="3" fill="#d97706" fill-opacity="0.9"/>
<text x="668" y="187" font-size="12" fill="#6b7280">1.000</text>
<text x="180" y="213" font-size="13" text-anchor="end" fill="#374151">html-stdlib</text>
<rect x="190" y="201" width="470" height="15" rx="3" fill="#2563eb" fill-opacity="0.9"/>
<text x="668" y="213" font-size="12" fill="#6b7280">1.000 &#183; coverage 50%</text>
<text x="180" y="239" font-size="13" text-anchor="end" fill="#374151">pypdf</text>
<rect x="190" y="227" width="352" height="15" rx="3" fill="#2563eb" fill-opacity="0.9"/>
<text x="550" y="239" font-size="12" fill="#6b7280">0.750 &#183; coverage 50%</text>
<text x="24" y="268" font-size="15" font-weight="700" fill="#111827">en-form</text>
<text x="180" y="293" font-size="13" text-anchor="end" fill="#374151">html-stdlib</text>
<rect x="190" y="281" width="470" height="15" rx="3" fill="#2563eb" fill-opacity="0.9"/>
<text x="668" y="293" font-size="12" fill="#6b7280">1.000</text>
<text x="180" y="319" font-size="13" text-anchor="end" fill="#374151">mock-oracle (mock)</text>
<rect x="190" y="307" width="470" height="15" rx="3" fill="#d97706" fill-opacity="0.9"/>
<text x="668" y="319" font-size="12" fill="#6b7280">1.000</text>
<text x="24" y="348" font-size="15" font-weight="700" fill="#111827">ja-vertical</text>
<text x="180" y="373" font-size="13" text-anchor="end" fill="#374151">html-stdlib</text>
<rect x="190" y="361" width="470" height="15" rx="3" fill="#2563eb" fill-opacity="0.9"/>
<text x="668" y="373" font-size="12" fill="#6b7280">1.000</text>
<text x="180" y="399" font-size="13" text-anchor="end" fill="#374151">mock-oracle (mock)</text>
<rect x="190" y="387" width="470" height="15" rx="3" fill="#d97706" fill-opacity="0.9"/>
<text x="668" y="399" font-size="12" fill="#6b7280">1.000</text>
<text x="24" y="428" font-size="15" font-weight="700" fill="#111827">ja-receipt</text>
<text x="180" y="453" font-size="13" text-anchor="end" fill="#374151">mock-oracle (mock)</text>
<rect x="190" y="441" width="470" height="15" rx="3" fill="#d97706" fill-opacity="0.9"/>
<text x="668" y="453" font-size="12" fill="#6b7280">1.000</text>
<text x="180" y="479" font-size="13" text-anchor="end" fill="#374151">html-stdlib</text>
<rect x="190" y="467" width="470" height="15" rx="3" fill="#2563eb" fill-opacity="0.9"/>
<text x="668" y="479" font-size="12" fill="#6b7280">1.000 &#183; coverage 50%</text>
<text x="180" y="505" font-size="13" text-anchor="end" fill="#374151">plaintext</text>
<rect x="190" y="493" width="470" height="15" rx="3" fill="#2563eb" fill-opacity="0.9"/>
<text x="668" y="505" font-size="12" fill="#6b7280">1.000 &#183; coverage 50%</text>
</g>
</svg>
